<svg width="24" height="24" viewBox="0 0 24 24" fill="none" xmlns="http://www.w3.org/2000/svg">
<path d="M7.99988 17.9999C6.89988 17.9999 6.00988 18.8999 6.00988 19.9999C6.00988 21.0999 6.89988 21.9999 7.99988 21.9999C9.09988 21.9999 9.99988 21.0999 9.99988 19.9999C9.99988 18.8999 9.09988 17.9999 7.99988 17.9999ZM1.99988 1.99988V3.99988H3.99988L7.59988 11.5899L6.24988 14.0399C6.08988 14.3199 5.99988 14.6499 5.99988 14.9999C5.99988 16.0999 6.89988 16.9999 7.99988 16.9999H19.9999V14.9999H8.41988C8.27988 14.9999 8.16988 14.8899 8.16988 14.7499L8.19988 14.6299L9.09988 12.9999H16.5499C17.2999 12.9999 17.9599 12.5899 18.2999 11.9699L21.8799 5.47988C21.9599 5.33988 21.9999 5.16988 21.9999 4.99988C21.9999 4.44988 21.5499 3.99988 20.9999 3.99988H6.20988L5.26988 1.99988H1.99988ZM17.9999 17.9999C16.8999 17.9999 16.0099 18.8999 16.0099 19.9999C16.0099 21.0999 16.8999 21.9999 17.9999 21.9999C19.0999 21.9999 19.9999 21.0999 19.9999 19.9999C19.9999 18.8999 19.0999 17.9999 17.9999 17.9999Z" fill="white"/>
</svg>
